# xmcd
#
# Track frame offsets:
#	150
#	14250
#	29483
#	48125
#	65225
#	79772
#	96035
#	112385
#	126932
#	140803
#	154903
#	170136
#	188778
#	205878
#	220425
#	236688
#	253038
#	267585
#
# Disc length: 3752 seconds
#
# Revision: 0
# Processed by: cddbd v1.5.1PL2 Copyright (c) Steve Scherf et al.
# Submitted via: audiograbber 1.83.01
#
DISCID=1c0ea612
DTITLE=Various Artist - PHN0206
DYEAR=1900
DGENRE=Karaoke
TTITLE0=Byrd, Tracy - Ten Rounds With Jose Cuervo
TTITLE1=She Daisy - Get Over Yourself
TTITLE2=Nolen, Gabbie - Almost There
TTITLE3=Shelton, Blake - Ol' Red 
TTITLE4=Griggs, Andy - Tonight I Wanna Be Your Man 
TTITLE5=Worley, Darryl - I Miss My Friend
TTITLE6=Diffie, Joe - This Pretender
TTITLE7=Paisley, Brad - I'm Gonna Miss Her
TTITLE8=Emerson Drive - I Should Be Sleeping
TTITLE9=Byrd, Tracy - Ten Rounds With Jose Cuervo (Vocal)
TTITLE10=She Daisy - Get Over Yourself (Vocal)
TTITLE11=Nolen, Gabbie - Almost There (Vocal)
TTITLE12=Shelton, Blake - Ol' Red (Vocal)
TTITLE13=Griggs, Andy - Tonight I Wanna Be Your Man (Vocal)
TTITLE14=Worley, Darryl - I Miss My Friend (Vocal)
TTITLE15=Diffie, Joe - This Pretender (Vocal)
TTITLE16=Paisley, Brad - I'm Gonna Miss Her (Vocal)
TTITLE17=Emerson Drive - I Should Be Sleeping (Vocal)
EXTD=
EXTT0=
EXTT1=
EXTT2=
EXTT3=
EXTT4=
EXTT5=
EXTT6=
EXTT7=
EXTT8=
EXTT9=
EXTT10=
EXTT11=
EXTT12=
EXTT13=
EXTT14=
EXTT15=
EXTT16=
EXTT17=
PLAYORDER=
